<svg xmlns="http://www.w3.org/2000/svg" width="244.06" height="84.778" viewBox="0 0 244.06 84.778">
  <g id="Group_20" data-name="Group 20" transform="translate(-605 342)" opacity="0.37">
    <circle id="Ellipse_8" data-name="Ellipse 8" cx="2.072" cy="2.072" r="2.072" transform="translate(605 -341.999)" fill="#fff"/>
    <circle id="Ellipse_9" data-name="Ellipse 9" cx="2.072" cy="2.072" r="2.072" transform="translate(634.99 -341.999)" fill="#d9e0f6"/>
    <circle id="Ellipse_10" data-name="Ellipse 10" cx="2.072" cy="2.072" r="2.072" transform="translate(664.979 -341.999)" fill="#d9e0f6"/>
    <path id="Path_27" data-name="Path 27" d="M-841.5,92.545a2.072,2.072,0,0,1-2.072,2.072,2.071,2.071,0,0,1-2.072-2.072,2.072,2.072,0,0,1,2.072-2.072A2.073,2.073,0,0,1-841.5,92.545Z" transform="translate(1540.612 -432.473)" fill="#fff"/>
    <circle id="Ellipse_11" data-name="Ellipse 11" cx="2.072" cy="2.072" r="2.072" transform="translate(724.958 -341.999)" fill="#d9e0f6"/>
    <circle id="Ellipse_12" data-name="Ellipse 12" cx="2.072" cy="2.072" r="2.072" transform="translate(754.948 -341.999)" fill="#d9e0f6"/>
    <circle id="Ellipse_13" data-name="Ellipse 13" cx="2.072" cy="2.072" r="2.072" transform="translate(784.938 -341.999)" fill="#d9e0f6"/>
    <circle id="Ellipse_14" data-name="Ellipse 14" cx="2.072" cy="2.072" r="2.072" transform="translate(814.927 -341.999)" fill="#d9e0f6"/>
    <circle id="Ellipse_15" data-name="Ellipse 15" cx="2.072" cy="2.072" r="2.072" transform="translate(844.917 -341.999)" fill="#d9e0f6"/>
    <circle id="Ellipse_16" data-name="Ellipse 16" cx="2.072" cy="2.072" r="2.072" transform="translate(605 -321.841)" fill="#d9e0f6"/>
    <circle id="Ellipse_17" data-name="Ellipse 17" cx="2.072" cy="2.072" r="2.072" transform="translate(634.99 -321.841)" fill="#d9e0f6"/>
    <circle id="Ellipse_18" data-name="Ellipse 18" cx="2.072" cy="2.072" r="2.072" transform="translate(664.979 -321.841)" fill="#d9e0f6"/>
    <path id="Path_28" data-name="Path 28" d="M-841.5,104.416a2.072,2.072,0,0,1-2.072,2.072,2.071,2.071,0,0,1-2.072-2.072,2.072,2.072,0,0,1,2.072-2.072A2.073,2.073,0,0,1-841.5,104.416Z" transform="translate(1540.612 -424.185)" fill="#d9e0f6"/>
    <circle id="Ellipse_19" data-name="Ellipse 19" cx="2.072" cy="2.072" r="2.072" transform="translate(724.958 -321.841)" fill="#d9e0f6"/>
    <circle id="Ellipse_20" data-name="Ellipse 20" cx="2.072" cy="2.072" r="2.072" transform="translate(754.948 -321.841)" fill="#fff"/>
    <circle id="Ellipse_21" data-name="Ellipse 21" cx="2.072" cy="2.072" r="2.072" transform="translate(784.938 -321.841)" fill="#d9e0f6"/>
    <circle id="Ellipse_22" data-name="Ellipse 22" cx="2.072" cy="2.072" r="2.072" transform="translate(814.927 -321.841)" fill="#d9e0f6"/>
    <circle id="Ellipse_23" data-name="Ellipse 23" cx="2.072" cy="2.072" r="2.072" transform="translate(844.917 -321.841)" fill="#fff"/>
    <circle id="Ellipse_24" data-name="Ellipse 24" cx="2.072" cy="2.072" r="2.072" transform="translate(605 -301.682)" fill="#d9e0f6"/>
    <circle id="Ellipse_25" data-name="Ellipse 25" cx="2.072" cy="2.072" r="2.072" transform="translate(634.99 -301.682)" fill="#fff"/>
    <circle id="Ellipse_26" data-name="Ellipse 26" cx="2.072" cy="2.072" r="2.072" transform="translate(664.979 -301.682)" fill="#d9e0f6"/>
    <path id="Path_29" data-name="Path 29" d="M-841.5,116.287a2.072,2.072,0,0,1-2.072,2.072,2.071,2.071,0,0,1-2.072-2.072,2.071,2.071,0,0,1,2.072-2.072A2.072,2.072,0,0,1-841.5,116.287Z" transform="translate(1540.612 -415.898)" fill="#d9e0f6"/>
    <circle id="Ellipse_27" data-name="Ellipse 27" cx="2.072" cy="2.072" r="2.072" transform="translate(724.958 -301.682)" fill="#d9e0f6"/>
    <circle id="Ellipse_28" data-name="Ellipse 28" cx="2.072" cy="2.072" r="2.072" transform="translate(754.948 -301.682)" fill="#d9e0f6"/>
    <circle id="Ellipse_29" data-name="Ellipse 29" cx="2.072" cy="2.072" r="2.072" transform="translate(784.938 -301.682)" fill="#fff"/>
    <circle id="Ellipse_30" data-name="Ellipse 30" cx="2.072" cy="2.072" r="2.072" transform="translate(814.927 -301.682)" fill="#d9e0f6"/>
    <circle id="Ellipse_31" data-name="Ellipse 31" cx="2.072" cy="2.072" r="2.072" transform="translate(844.917 -301.682)" fill="#d9e0f6"/>
    <circle id="Ellipse_32" data-name="Ellipse 32" cx="2.072" cy="2.072" r="2.072" transform="translate(605 -281.524)" fill="#d9e0f6"/>
    <circle id="Ellipse_33" data-name="Ellipse 33" cx="2.072" cy="2.072" r="2.072" transform="translate(634.99 -281.524)" fill="#d9e0f6"/>
    <circle id="Ellipse_34" data-name="Ellipse 34" cx="2.072" cy="2.072" r="2.072" transform="translate(664.979 -281.524)" fill="#fff"/>
    <path id="Path_30" data-name="Path 30" d="M-841.5,128.158a2.072,2.072,0,0,1-2.072,2.072,2.071,2.071,0,0,1-2.072-2.072,2.071,2.071,0,0,1,2.072-2.072A2.072,2.072,0,0,1-841.5,128.158Z" transform="translate(1540.612 -407.61)" fill="#d9e0f6"/>
    <circle id="Ellipse_35" data-name="Ellipse 35" cx="2.072" cy="2.072" r="2.072" transform="translate(724.958 -281.524)" fill="#fff"/>
    <circle id="Ellipse_36" data-name="Ellipse 36" cx="2.072" cy="2.072" r="2.072" transform="translate(754.948 -281.524)" fill="#d9e0f6"/>
    <circle id="Ellipse_37" data-name="Ellipse 37" cx="2.072" cy="2.072" r="2.072" transform="translate(784.938 -281.524)" fill="#d9e0f6"/>
    <circle id="Ellipse_38" data-name="Ellipse 38" cx="2.072" cy="2.072" r="2.072" transform="translate(814.927 -281.524)" fill="#d9e0f6"/>
    <circle id="Ellipse_39" data-name="Ellipse 39" cx="2.072" cy="2.072" r="2.072" transform="translate(844.917 -281.524)" fill="#d9e0f6"/>
    <circle id="Ellipse_40" data-name="Ellipse 40" cx="2.072" cy="2.072" r="2.072" transform="translate(605 -261.366)" fill="#d9e0f6"/>
    <circle id="Ellipse_41" data-name="Ellipse 41" cx="2.072" cy="2.072" r="2.072" transform="translate(634.99 -261.366)" fill="#d9e0f6"/>
    <circle id="Ellipse_42" data-name="Ellipse 42" cx="2.072" cy="2.072" r="2.072" transform="translate(664.979 -261.366)" fill="#d9e0f6"/>
    <path id="Path_31" data-name="Path 31" d="M-841.5,140.029a2.072,2.072,0,0,1-2.072,2.072,2.071,2.071,0,0,1-2.072-2.072,2.071,2.071,0,0,1,2.072-2.072A2.072,2.072,0,0,1-841.5,140.029Z" transform="translate(1540.612 -399.323)" fill="#d9e0f6"/>
    <circle id="Ellipse_43" data-name="Ellipse 43" cx="2.072" cy="2.072" r="2.072" transform="translate(724.958 -261.366)" fill="#d9e0f6"/>
    <circle id="Ellipse_44" data-name="Ellipse 44" cx="2.072" cy="2.072" r="2.072" transform="translate(754.948 -261.366)" fill="#d9e0f6"/>
    <circle id="Ellipse_45" data-name="Ellipse 45" cx="2.072" cy="2.072" r="2.072" transform="translate(784.938 -261.366)" fill="#d9e0f6"/>
    <circle id="Ellipse_46" data-name="Ellipse 46" cx="2.072" cy="2.072" r="2.072" transform="translate(814.927 -261.366)" fill="#fff"/>
    <circle id="Ellipse_47" data-name="Ellipse 47" cx="2.072" cy="2.072" r="2.072" transform="translate(844.917 -261.366)" fill="#fff"/>
  </g>
</svg>
